<mxfile host="Electron" modified="2024-06-04T00:26:39.162Z" agent="Mozilla/5.0 (X11; Linux x86_64) AppleWebKit/537.36 (KHTML, like Gecko) draw.io/24.4.13 Chrome/124.0.6367.207 Electron/30.0.6 Safari/537.36" etag="P8Wnl2zh6IH64L5bfl4c" version="24.4.13" type="device">
  <diagram name="Page-1" id="4cj8Cy2wZRVqg76tto5_">
    <mxGraphModel dx="3407" dy="1958" grid="0" gridSize="10" guides="1" tooltips="1" connect="1" arrows="1" fold="1" page="0" pageScale="1" pageWidth="850" pageHeight="1100" math="0" shadow="0">
      <root>
        <mxCell id="0" />
        <mxCell id="1" parent="0" />
        <mxCell id="55743Gfy-r55TPICkvGC-1" value="Domain Events" style="shape=note;whiteSpace=wrap;html=1;backgroundOutline=1;darkOpacity=0.05;fillColor=#ff992a;strokeColor=none;size=0;shadow=1;fontSize=16;spacing=6;shadowBlur=5;shadowOffsetX=0;shadowOffsetY=10;shadowOpacity=30;comic=0;opacity=90;rounded=0;" parent="1" vertex="1">
          <mxGeometry x="-479" y="-218" width="146" height="154" as="geometry" />
        </mxCell>
        <mxCell id="55743Gfy-r55TPICkvGC-3" value="Actor" style="shape=note;whiteSpace=wrap;html=1;backgroundOutline=1;darkOpacity=0.05;fillColor=#fff2cc;strokeColor=none;size=0;shadow=1;fontSize=16;spacing=6;shadowOpacity=30;shadowOffsetX=0;shadowOffsetY=10;shadowBlur=5;opacity=90;rounded=0;" parent="1" vertex="1">
          <mxGeometry x="-479" y="138" width="146" height="154" as="geometry" />
        </mxCell>
        <mxCell id="55743Gfy-r55TPICkvGC-5" value="Command" style="shape=note;whiteSpace=wrap;html=1;backgroundOutline=1;darkOpacity=0.05;fillColor=#3399fe;strokeColor=none;size=0;shadow=1;fontSize=16;spacing=6;shadowOpacity=30;shadowOffsetX=0;shadowOffsetY=10;shadowBlur=5;opacity=90;rounded=0;" parent="1" vertex="1">
          <mxGeometry x="-479" y="-40" width="146" height="154" as="geometry" />
        </mxCell>
        <mxCell id="55743Gfy-r55TPICkvGC-10" value="Aggregate" style="shape=note;whiteSpace=wrap;html=1;backgroundOutline=1;darkOpacity=0.05;fillColor=#ffd42d;strokeColor=none;size=0;shadow=1;fontSize=16;spacing=6;shadowOpacity=30;shadowOffsetX=0;shadowOffsetY=10;shadowBlur=5;opacity=90;rounded=0;" parent="1" vertex="1">
          <mxGeometry x="-479" y="316" width="146" height="154" as="geometry" />
        </mxCell>
        <mxCell id="55743Gfy-r55TPICkvGC-14" value="Policy" style="shape=note;whiteSpace=wrap;html=1;backgroundOutline=1;darkOpacity=0.05;fillColor=#c391c2;strokeColor=none;size=0;shadow=1;fontSize=16;spacing=6;shadowOpacity=30;shadowOffsetX=0;shadowOffsetY=10;shadowBlur=5;opacity=90;rounded=0;" parent="1" vertex="1">
          <mxGeometry x="-479" y="493" width="146" height="154" as="geometry" />
        </mxCell>
        <mxCell id="55743Gfy-r55TPICkvGC-22" value="Bounded Context" style="swimlane;whiteSpace=wrap;html=1;container=0;dropTarget=0;dashed=1;spacing=6;strokeColor=default;align=center;verticalAlign=middle;fontFamily=Helvetica;fontSize=12;fontColor=default;fontStyle=1;fillColor=default;rounded=0;" parent="1" vertex="1">
          <mxGeometry x="-685" y="-251" width="147" height="1436" as="geometry" />
        </mxCell>
        <mxCell id="55743Gfy-r55TPICkvGC-25" value="External System" style="shape=note;whiteSpace=wrap;html=1;backgroundOutline=1;darkOpacity=0.05;fillColor=#ffcccc;strokeColor=none;size=0;shadow=1;fontSize=16;spacing=6;shadowOpacity=30;shadowOffsetX=0;shadowOffsetY=10;shadowBlur=5;opacity=90;rounded=0;" parent="1" vertex="1">
          <mxGeometry x="-479" y="671" width="146" height="154" as="geometry" />
        </mxCell>
        <mxCell id="55743Gfy-r55TPICkvGC-26" value="View" style="shape=note;whiteSpace=wrap;html=1;backgroundOutline=1;darkOpacity=0.05;fillColor=#5fc08b;strokeColor=none;size=0;shadow=1;fontSize=16;spacing=6;shadowOpacity=30;shadowOffsetX=0;shadowOffsetY=10;shadowBlur=5;opacity=90;rounded=0;" parent="1" vertex="1">
          <mxGeometry x="-479" y="849" width="146" height="154" as="geometry" />
        </mxCell>
        <mxCell id="55743Gfy-r55TPICkvGC-40" value="Architectural&lt;div&gt;Decision&lt;/div&gt;" style="shape=note;whiteSpace=wrap;html=1;backgroundOutline=1;darkOpacity=0.05;fillColor=#647687;strokeColor=none;size=0;shadow=1;fontSize=16;spacing=6;fontColor=#ffffff;shadowOpacity=30;shadowOffsetX=0;shadowOffsetY=10;shadowBlur=5;opacity=90;rounded=0;" parent="1" vertex="1">
          <mxGeometry x="-479" y="1027" width="146" height="154" as="geometry" />
        </mxCell>
      </root>
    </mxGraphModel>
  </diagram>
</mxfile>
